<?xml version="1.0" standalone="no"?>
<!DOCTYPE svg PUBLIC "-//W3C//DTD SVG 20010904//EN"
 "http://www.w3.org/TR/2001/REC-SVG-20010904/DTD/svg10.dtd">
<svg version="1.0" xmlns="http://www.w3.org/2000/svg"
 width="484.000000pt" height="346.000000pt" viewBox="0 0 484.000000 346.000000"
 preserveAspectRatio="xMidYMid meet">

<g transform="translate(0.000000,346.000000) scale(0.100000,-0.100000)"
fill="#000000" stroke="none">
<path d="M2220 3449 c-501 -55 -925 -239 -1307 -566 -440 -375 -726 -927 -782
-1507 -7 -64 -11 -364 -11 -718 l0 -608 215 0 215 0 0 613 c0 623 3 697 40
876 54 256 167 509 320 716 188 252 420 446 695 580 203 99 354 146 580 181
88 13 151 15 315 11 221 -6 307 -19 502 -76 442 -129 867 -463 1088 -856 l34
-60 -49 38 c-221 169 -500 300 -760 356 -275 60 -586 53 -863 -18 -314 -81
-603 -246 -834 -475 -245 -242 -402 -513 -491 -846 -50 -187 -57 -268 -57
-669 l0 -371 209 0 208 0 6 357 c7 425 17 503 92 715 123 344 420 655 770 806
252 109 577 142 852 87 392 -80 727 -314 938 -657 25 -39 43 -74 40 -76 -2 -3
-22 7 -43 21 -124 81 -339 164 -506 194 -119 21 -342 21 -463 -1 -386 -68
-716 -286 -928 -614 -65 -101 -129 -240 -159 -346 -31 -106 -56 -286 -56 -402
l0 -84 214 0 213 0 6 133 c6 154 27 240 87 365 98 205 241 348 443 447 291
141 634 122 913 -50 91 -56 232 -192 289 -279 88 -136 141 -308 151 -498 l7
-118 215 0 214 0 -5 653 c-4 594 -7 664 -25 784 -77 489 -282 902 -625 1260
-355 369 -813 604 -1343 688 -120 19 -447 27 -564 14z"/>
</g>
</svg>
