<?xml version="1.0" standalone="no"?>
<!DOCTYPE svg PUBLIC "-//W3C//DTD SVG 20010904//EN"
 "http://www.w3.org/TR/2001/REC-SVG-20010904/DTD/svg10.dtd">
<svg version="1.0" xmlns="http://www.w3.org/2000/svg"
 width="1253.000000pt" height="132.000000pt" viewBox="0 0 1253.000000 132.000000"
 preserveAspectRatio="xMidYMid meet">

<g transform="translate(0.000000,132.000000) scale(0.100000,-0.100000)"
fill="#000000" stroke="none">
<path d="M805 1300 c-329 -52 -604 -283 -703 -590 -36 -111 -42 -176 -42 -432
l0 -248 79 0 79 0 4 273 c4 263 5 275 31 352 37 113 90 197 177 285 156 157
387 234 600 201 149 -23 273 -81 378 -176 56 -50 146 -164 138 -172 -3 -3 -20
7 -39 21 -44 34 -168 90 -237 107 -78 20 -259 17 -340 -5 -182 -50 -359 -193
-438 -356 -61 -124 -73 -182 -79 -368 l-6 -162 87 0 87 0 -2 148 c-1 158 8
215 49 297 104 212 330 332 560 297 86 -13 215 -71 269 -121 39 -36 123 -139
123 -150 0 -5 -24 4 -53 20 -143 77 -330 76 -479 -3 -162 -86 -268 -254 -268
-424 l0 -64 80 0 80 0 0 55 c0 104 67 221 160 280 100 63 239 70 345 19 113
-56 195 -181 195 -299 l0 -55 85 0 85 0 0 188 c-1 321 -23 459 -99 610 -115
229 -314 389 -562 452 -94 24 -255 33 -344 20z"/>
<path d="M11870 580 l0 -540 95 0 95 0 0 161 c0 123 3 160 12 157 7 -3 66 -75
132 -161 l119 -157 104 0 c56 0 103 3 103 6 0 3 -65 95 -145 205 -80 109 -145
201 -145 204 0 3 58 81 130 173 71 92 130 170 130 175 0 4 -45 7 -99 7 l-100
0 -111 -145 c-61 -80 -115 -145 -121 -145 -5 0 -9 119 -9 300 l0 300 -95 0
-95 0 0 -540z"/>
<path d="M2220 1056 c0 -2 79 -142 175 -311 l175 -308 0 -198 0 -199 100 0
100 0 0 199 0 199 175 307 c96 170 175 310 175 312 0 1 -47 3 -104 3 l-104 0
-114 -200 c-62 -110 -118 -200 -123 -200 -6 0 -62 90 -125 200 l-115 199 -107
1 c-60 0 -108 -2 -108 -4z"/>
<path d="M5050 550 l0 -510 105 0 105 0 0 230 0 230 230 0 230 0 0 -230 0
-230 100 0 100 0 0 510 0 510 -100 0 -100 0 0 -190 0 -190 -230 0 -230 0 0
190 0 190 -105 0 -105 0 0 -510z"/>
<path d="M3413 818 c-192 -21 -313 -176 -313 -401 0 -117 39 -222 107 -291
101 -103 318 -134 458 -66 50 24 137 115 133 138 -2 8 -31 33 -65 54 l-62 39
-33 -37 c-41 -46 -82 -64 -151 -64 -59 0 -120 26 -146 62 -21 29 -39 77 -40
105 l-1 23 253 2 252 3 -1 110 c0 120 -15 169 -68 232 -58 69 -191 106 -323
91z m166 -182 c17 -16 33 -43 36 -60 4 -17 9 -39 11 -48 5 -17 -7 -18 -160
-18 l-165 0 8 28 c29 100 75 135 173 130 58 -3 71 -8 97 -32z"/>
<path d="M4092 801 c-103 -36 -158 -119 -150 -230 8 -116 69 -167 263 -220
143 -39 175 -75 122 -137 -48 -55 -189 -39 -264 32 -20 19 -39 34 -44 34 -12
0 -109 -103 -109 -116 0 -19 79 -84 127 -105 60 -26 175 -43 237 -35 167 21
258 106 259 241 0 139 -65 199 -265 244 -110 25 -148 48 -148 91 0 85 174 96
258 17 l23 -21 57 58 57 57 -44 40 c-26 23 -64 45 -94 54 -72 21 -218 19 -285
-4z"/>
<path d="M6348 798 c-152 -52 -240 -217 -225 -417 9 -111 40 -184 107 -252 76
-77 142 -102 270 -102 128 0 194 25 271 102 67 68 97 139 106 252 16 204 -71
361 -228 417 -84 29 -218 30 -301 0z m219 -149 c72 -27 113 -108 113 -224 0
-152 -64 -235 -180 -235 -84 0 -141 43 -165 124 -41 138 1 293 90 332 37 16
104 18 142 3z"/>
<path d="M7370 804 c-19 -8 -54 -36 -77 -61 l-43 -46 0 57 0 56 -95 0 -95 0 0
-385 0 -385 94 0 94 0 4 248 c3 241 4 248 28 292 59 107 210 108 240 2 5 -21
10 -147 10 -289 l0 -253 94 0 95 0 3 248 c3 278 9 304 78 350 45 31 129 27
163 -7 21 -21 22 -29 25 -306 l3 -285 100 0 101 0 -4 303 c-5 320 -7 341 -56
406 -37 49 -92 71 -186 71 -111 0 -173 -32 -226 -118 -10 -16 -12 -16 -23 2
-57 88 -109 116 -217 115 -44 0 -89 -6 -110 -15z"/>
<path d="M8601 805 c-103 -32 -184 -115 -221 -225 -19 -55 -21 -82 -18 -180 3
-98 7 -123 30 -171 36 -79 87 -131 158 -163 174 -78 375 -45 472 77 21 27 38
52 38 56 0 4 -30 26 -67 50 l-66 42 -36 -40 c-42 -48 -74 -61 -145 -61 -100 0
-171 60 -189 158 l-6 32 254 0 255 0 6 26 c10 40 -3 172 -22 229 -25 71 -104
148 -174 169 -66 20 -208 20 -269 1z m216 -155 c38 -23 50 -43 59 -99 l7 -41
-163 0 -162 0 7 28 c11 44 39 85 75 109 44 30 131 32 177 3z"/>
<path d="M10553 800 c-99 -35 -166 -102 -205 -203 -19 -52 -23 -80 -23 -177 1
-97 5 -125 25 -175 31 -80 114 -164 190 -192 156 -58 337 -26 437 79 124 130
136 401 24 556 -36 49 -77 78 -150 108 -74 31 -219 33 -298 4z m209 -150 c94
-27 140 -164 107 -320 -19 -90 -80 -140 -169 -140 -111 0 -168 64 -177 199
-14 203 79 305 239 261z"/>
<path d="M11593 810 c-47 -11 -79 -35 -111 -82 l-27 -42 -3 62 -3 62 -94 0
-95 0 0 -385 0 -385 94 0 94 0 4 228 c5 241 11 276 56 324 35 38 83 52 152 44
l57 -7 13 75 c7 41 10 81 7 89 -9 24 -80 33 -144 17z"/>
<path d="M9244 428 l91 -383 102 -3 102 -3 15 53 c9 29 40 145 70 257 53 196
61 219 70 210 5 -4 146 -504 146 -514 0 -3 47 -5 104 -5 l104 0 21 93 c12 50
52 223 90 382 l68 290 -85 3 c-46 2 -86 2 -87 0 -2 -2 -27 -119 -57 -260 -29
-142 -57 -257 -62 -255 -9 3 -16 24 -106 335 l-53 183 -85 -3 -85 -3 -71 -253
c-39 -139 -75 -253 -81 -253 -5 0 -35 114 -65 253 l-55 253 -91 3 -91 3 91
-383z"/>
</g>
</svg>
